<svg id="Layer_2" data-name="Layer 2" xmlns="http://www.w3.org/2000/svg" viewBox="0 0 596.66 150"><rect x="15.16" width="581.5" height="150" rx="67.6" fill="#f6871f"/><path d="M143.86,438.29c-15,10.56-34.46,13.26-44.39,13.68C118,437.28,116,405.78,114.62,374.85" transform="translate(-99.47 -304.4)" fill="#f6871f"/><path d="M199.27,396V373h-4.72c-2.14,0-3.38-1.3-3.38-3.54V358.94c0-2.24,1.24-3.54,3.38-3.54h7.19l1.92-11a4.6,4.6,0,0,1,5-4.25h8.77c2.93,0,4.5,1.65,4.5,4.72V355.4h10.69c2.14,0,3.37,1.3,3.37,3.54v10.51c0,2.24-1.23,3.54-3.37,3.54H221.88v23.25c0,2.72,1.24,3.78,2.81,3.78,2.37,0,3.15-2.48,3.15-4.72a10.23,10.23,0,0,0-.11-1.89c-.22-2.48.56-3.78,2.81-3.78h8.33a3.57,3.57,0,0,1,3.82,2.6,17.13,17.13,0,0,1,.9,4.84c0,17.35-11.7,21.72-21.82,21.72C211.19,418.79,199.27,414.19,199.27,396Z" transform="translate(-99.47 -304.4)" fill="#fff"/><path d="M249.78,410.41V339.23c0-4.61,2.36-7.09,6.75-7.09h9.68c4.38,0,6.74,2.48,6.74,7.09v23.84c3.27-5.55,8.44-9,16.43-9,18.34,0,20.59,16.88,20.59,27v29.28c0,4.6-2.37,7.08-6.75,7.08h-9.68c-4.39,0-6.75-2.48-6.75-7.08V383.49c0-4.84-1-10.5-7-10.5s-6.87,5.66-6.87,10.5v26.92c0,4.6-2.36,7.08-6.74,7.08h-9.68C252.14,417.49,249.78,415,249.78,410.41Z" transform="translate(-99.47 -304.4)" fill="#fff"/><path d="M362.61,359.06v13c0,3.78-2,5.43-4.83,5.2a20.44,20.44,0,0,0-2.59-.12c-9.45,0-11.7,6.85-11.7,13.34v20c0,4.6-2.36,7.08-6.75,7.08h-9.67c-4.39,0-6.75-2.48-6.75-7.08V362.48c0-4.6,2.36-7.08,6.75-7.08h8.77c4.39,0,6.75,2.48,6.75,7.08v6c1.91-12.63,11.7-14.4,14.85-14.4h1.35C361.94,354.1,362.61,356.81,362.61,359.06Z" transform="translate(-99.47 -304.4)" fill="#fff"/><path d="M365.76,386.68c0-17,11.7-32.58,33.08-32.58,18.67,0,32.62,11.8,32.62,31.64,0,3.89-2.81,5.54-7,5.54H387.36c0,3.43,5.18,9.33,15.19,9.33A23.38,23.38,0,0,0,413,398.13c3.83-1.89,6.87-1.65,9.34,1.89l1.8,2.48c2.59,3.54,2.36,7.44-1.35,10-6.64,4.49-14.62,6.26-22.27,6.26C378.7,418.79,365.76,404.51,365.76,386.68Zm44.78-6.61c-.34-6-5.85-9-11.59-9s-11.25,2.95-11.59,9Z" transform="translate(-99.47 -304.4)" fill="#fff"/><path d="M436.19,386.44c0-18.76,12-32.34,27.78-32.34,7.65,0,13.73,3.42,16.88,9.09v-.71c0-4.6,2.36-7.08,6.75-7.08h9.67c4.39,0,6.75,2.48,6.75,7.08v47.93c0,4.6-2.36,7.08-6.75,7.08H487.6c-4.39,0-6.75-2.48-6.75-7.08v-.59c-3.15,5.55-9.23,9-16.88,9C448.22,418.79,436.19,405.21,436.19,386.44Zm45,0c0-7.79-4.17-13.81-10.92-13.81s-10.91,6-10.91,13.81,4.16,13.82,10.91,13.82S481.19,394.24,481.19,386.44Z" transform="translate(-99.47 -304.4)" fill="#fff"/><path d="M512.12,386.44c0-18.76,12-32.34,27.79-32.34,7.65,0,13.72,3.42,16.87,9.09v-24c0-4.61,2.37-7.09,6.75-7.09h9.68c4.38,0,6.75,2.48,6.75,7.09v71.18c0,4.6-2.37,7.08-6.75,7.08h-9.68c-4.38,0-6.75-2.48-6.75-7.08v-.59c-3.15,5.55-9.22,9-16.87,9C524.16,418.79,512.12,405.21,512.12,386.44Zm45,0c0-7.79-4.16-13.81-10.91-13.81s-10.91,6-10.91,13.81,4.16,13.82,10.91,13.82S557.12,394.24,557.12,386.44Z" transform="translate(-99.47 -304.4)" fill="#fff"/><path d="M589.18,407.1c0-7,5.4-12,12.94-12,7.31,0,13,5.08,13,12,0,6.73-5.74,11.69-13,11.69C594.58,418.79,589.18,413.83,589.18,407.1Z" transform="translate(-99.47 -304.4)" fill="#fff"/></svg>