<?xml version="1.0" encoding="utf-8"?>
<!-- Generator: Adobe Illustrator 25.4.1, SVG Export Plug-In . SVG Version: 6.00 Build 0)  -->
<svg version="1.1" xmlns="http://www.w3.org/2000/svg" xmlns:xlink="http://www.w3.org/1999/xlink" x="0px" y="0px"
	 viewBox="0 0 800 800" style="enable-background:new 0 0 800 800;" xml:space="preserve">
<style type="text/css">
	.st0{display:none;}
	.st1{fill:#F6871F;}
	.st2{fill:#FFFFFF;}
</style>
<g id="Layer_1" class="st0">
</g>
<g id="Layer_2">
	<path class="st1" d="M710.7,479H100.4c-37.3,0-67.6-30.3-67.6-67.6V372c0-37.3,30.3-67.6,67.6-67.6h610.3
		c37.3,0,67.6,30.3,67.6,67.6v39.4C778.3,448.7,748,479,710.7,479z"/>
	<path class="st1" d="M70.3,460.3c-19.2,12.3-44.2,15.4-56.9,15.9c23.8-17.1,21.2-53.8,19.4-89.8"/>
	<g>
		<path class="st2" d="M141.3,411v-26.8h-6.1c-2.7,0-4.3-1.5-4.3-4.1v-12.2c0-2.6,1.6-4.1,4.3-4.1h9.2L147,351
			c0.6-3.3,2.9-4.9,6.3-4.9h11.2c3.7,0,5.8,1.9,5.8,5.5v12.2H184c2.7,0,4.3,1.5,4.3,4.1v12.2c0,2.6-1.6,4.1-4.3,4.1h-13.7v27.1
			c0,3.2,1.6,4.4,3.6,4.4c3,0,4-2.9,4-5.5c0-0.8,0-1.5-0.1-2.2c-0.3-2.9,0.7-4.4,3.6-4.4h10.7c2.3,0,4.2,0.8,4.9,3
			c0.7,1.8,1,3.7,1.2,5.6c0,20.2-15,25.3-28,25.3C156.6,437.6,141.3,432.2,141.3,411z"/>
		<path class="st2" d="M206.1,427.8v-82.9c0-5.4,3-8.2,8.7-8.2h12.4c5.6,0,8.7,2.9,8.7,8.2v27.8c4.2-6.5,10.8-10.4,21.1-10.4
			c23.5,0,26.4,19.7,26.4,31.5v34.1c0,5.4-3,8.2-8.7,8.2h-12.4c-5.6,0-8.7-2.9-8.7-8.2v-31.3c0-5.6-1.3-12.2-8.9-12.2
			c-7.6,0-8.8,6.6-8.8,12.2v31.3c0,5.4-3,8.2-8.7,8.2h-12.4C209.1,436,206.1,433.2,206.1,427.8z"/>
		<path class="st2" d="M350.7,368v15.1c0,4.4-2.6,6.3-6.2,6c-1.3-0.1-2.3-0.1-3.3-0.1c-12.1,0-15,8-15,15.5v23.2
			c0,5.4-3,8.2-8.7,8.2h-12.4c-5.6,0-8.7-2.9-8.7-8.2V372c0-5.4,3-8.2,8.7-8.2h11.2c5.6,0,8.7,2.9,8.7,8.2v7
			c2.5-14.7,15-16.8,19-16.8h1.7C349.9,362.3,350.7,365.4,350.7,368z"/>
		<path class="st2" d="M354.8,400.2c0-19.8,15-37.9,42.4-37.9c23.9,0,41.8,13.7,41.8,36.8c0,4.5-3.6,6.5-8.9,6.5h-47.6
			c0,4,6.6,10.9,19.5,10.9c3.5,0,8.2-0.5,13.4-2.9c4.9-2.2,8.8-1.9,12,2.2l2.3,2.9c3.3,4.1,3,8.7-1.7,11.7
			c-8.5,5.2-18.7,7.3-28.6,7.3C371.4,437.6,354.8,420.9,354.8,400.2z M412.2,392.5c-0.4-7-7.5-10.4-14.9-10.4
			c-7.2,0-14.4,3.4-14.9,10.4H412.2z"/>
		<path class="st2" d="M445.1,399.9c0-21.8,15.4-37.7,35.6-37.7c9.8,0,17.6,4,21.6,10.6V372c0-5.4,3-8.2,8.7-8.2h12.4
			c5.6,0,8.7,2.9,8.7,8.2v55.8c0,5.4-3,8.2-8.7,8.2H511c-5.6,0-8.7-2.9-8.7-8.2v-0.7c-4,6.5-11.8,10.4-21.6,10.4
			C460.5,437.6,445.1,421.8,445.1,399.9z M502.7,399.9c0-9.1-5.3-16.1-14-16.1c-8.7,0-14,7-14,16.1c0,9.1,5.3,16.1,14,16.1
			C497.4,416,502.7,409,502.7,399.9z"/>
		<path class="st2" d="M542.4,399.9c0-21.8,15.4-37.7,35.6-37.7c9.8,0,17.6,4,21.6,10.6v-27.9c0-5.4,3-8.2,8.7-8.2h12.4
			c5.6,0,8.7,2.9,8.7,8.2v82.9c0,5.4-3,8.2-8.7,8.2h-12.4c-5.6,0-8.7-2.9-8.7-8.2v-0.7c-4,6.5-11.8,10.4-21.6,10.4
			C557.8,437.6,542.4,421.8,542.4,399.9z M600.1,399.9c0-9.1-5.3-16.1-14-16.1c-8.7,0-14,7-14,16.1c0,9.1,5.3,16.1,14,16.1
			C594.7,416,600.1,409,600.1,399.9z"/>
		<path class="st2" d="M641.2,424c0-8.1,6.9-14,16.6-14c9.4,0,16.7,5.9,16.7,14c0,7.8-7.4,13.6-16.7,13.6
			C648.1,437.6,641.2,431.8,641.2,424z"/>
	</g>
</g>
</svg>
